<svg width="0" height="0" class="hidden">
  <symbol version="1.0" xmlns="http://www.w3.org/2000/svg" preserveAspectRatio="xMidYMid meet" viewBox="0 0 1200.000000 1200.000000" id="favicon">
    <g transform="translate(0.000000,1200.000000) scale(0.100000,-0.100000)" fill="#000000" stroke="none">
      <path d="M4190 11960 c0 -36 -2 -40 -25 -40 -18 0 -25 -5 -25 -20 0 -13 -7
-20 -20 -20 -17 0 -20 -7 -20 -40 0 -33 -3 -40 -20 -40 -18 0 -20 -7 -20 -60
0 -57 -1 -60 -25 -60 -24 0 -25 -3 -25 -55 0 -48 -2 -55 -20 -55 -19 0 -20 -7
-20 -160 0 -153 -1 -160 -20 -160 -19 0 -20 -7 -20 -100 0 -93 1 -100 20 -100
19 0 20 -7 20 -175 0 -168 1 -175 20 -175 19 0 20 -7 20 -100 l0 -100 25 0
c25 0 25 -1 25 -80 0 -73 2 -80 20 -80 18 0 20 -7 20 -80 0 -73 2 -80 20 -80
18 0 20 -7 20 -75 0 -73 1 -75 25 -75 24 0 25 -3 25 -60 0 -53 2 -60 20 -60
18 0 20 -7 20 -60 0 -53 2 -60 20 -60 18 0 20 -7 20 -60 0 -53 2 -60 20 -60
17 0 20 -7 20 -40 0 -36 3 -40 25 -40 24 0 25 -3 25 -60 0 -53 2 -60 20 -60
17 0 20 -7 20 -40 0 -33 3 -40 20 -40 18 0 20 -7 20 -55 0 -48 -2 -55 -20 -55
-13 0 -20 -7 -20 -20 0 -13 -7 -20 -20 -20 -17 0 -20 -7 -20 -40 0 -36 -2 -40
-25 -40 -22 0 -25 -4 -25 -40 0 -33 -3 -40 -20 -40 -17 0 -20 -7 -20 -40 0
-33 -3 -40 -20 -40 -18 0 -20 -7 -20 -60 0 -53 -2 -60 -20 -60 -18 0 -20 -7
-20 -80 0 -79 0 -80 -25 -80 -24 0 -25 -2 -25 -75 0 -68 -2 -75 -20 -75 -19 0
-20 -7 -20 -120 0 -113 -1 -120 -20 -120 -19 0 -20 -7 -20 -255 l0 -255 -25 0
c-18 0 -25 5 -25 20 0 13 -7 20 -20 20 -11 0 -20 7 -20 15 0 8 -9 15 -20 15
-13 0 -20 7 -20 20 0 13 -7 20 -20 20 -17 0 -20 7 -20 40 0 36 -2 40 -25 40
-18 0 -25 5 -25 20 0 13 -7 20 -20 20 -13 0 -20 7 -20 20 0 13 -7 20 -20 20
-13 0 -20 7 -20 20 0 13 -7 20 -20 20 -17 0 -20 7 -20 40 0 36 -2 40 -25 40
-18 0 -25 5 -25 20 0 13 -7 20 -20 20 -13 0 -20 7 -20 20 0 13 -7 20 -20 20
-17 0 -20 7 -20 40 0 36 -2 40 -25 40 -18 0 -25 5 -25 20 0 13 -7 20 -20 20
-13 0 -20 7 -20 20 0 13 -7 20 -20 20 -17 0 -20 7 -20 40 0 33 -3 40 -20 40
-13 0 -20 7 -20 20 0 15 -7 20 -25 20 -18 0 -25 5 -25 20 0 13 -7 20 -20 20
-16 0 -20 7 -20 35 0 28 -4 35 -20 35 -13 0 -20 7 -20 20 0 13 -7 20 -20 20
-13 0 -20 7 -20 20 0 15 -7 20 -25 20 -22 0 -25 4 -25 40 0 33 -3 40 -20 40
-13 0 -20 7 -20 20 0 13 -7 20 -20 20 -13 0 -20 7 -20 20 0 15 -7 20 -25 20
-22 0 -25 4 -25 40 0 33 -3 40 -20 40 -13 0 -20 7 -20 20 0 13 -7 20 -20 20
-13 0 -20 7 -20 20 0 13 -7 20 -20 20 -17 0 -20 7 -20 40 0 36 -2 40 -25 40
-18 0 -25 5 -25 20 0 13 -7 20 -20 20 -13 0 -20 7 -20 20 0 13 -7 20 -20 20
-13 0 -20 7 -20 20 0 13 -7 20 -20 20 -17 0 -20 7 -20 40 0 36 -2 40 -25 40
-16 0 -25 6 -25 15 0 8 -9 15 -20 15 -13 0 -20 7 -20 20 0 13 -7 20 -20 20
-17 0 -20 7 -20 40 0 36 -2 40 -25 40 -18 0 -25 5 -25 20 0 13 -7 20 -20 20
-13 0 -20 7 -20 20 0 13 -7 20 -20 20 -17 0 -20 7 -20 40 0 33 -3 40 -20 40
-13 0 -20 7 -20 20 0 15 -7 20 -25 20 -18 0 -25 5 -25 20 0 13 -7 20 -20 20
-17 0 -20 7 -20 40 0 33 -3 40 -20 40 -13 0 -20 7 -20 20 0 13 -7 20 -20 20
-13 0 -20 7 -20 20 0 15 -7 20 -25 20 -22 0 -25 4 -25 40 0 33 -3 40 -20 40
-13 0 -20 7 -20 20 0 13 -7 20 -20 20 -13 0 -20 7 -20 20 0 13 -7 20 -20 20
-16 0 -20 7 -20 35 0 31 -3 35 -25 35 -18 0 -25 5 -25 20 0 13 -7 20 -20 20
-13 0 -20 7 -20 20 0 13 -7 20 -20 20 -13 0 -20 7 -20 20 0 15 -7 20 -25 20
-22 0 -25 4 -25 40 0 33 -3 40 -20 40 -13 0 -20 7 -20 20 0 13 -7 20 -20 20
-13 0 -20 7 -20 20 0 13 -7 20 -20 20 -17 0 -20 7 -20 40 0 36 -2 40 -25 40
-18 0 -25 5 -25 20 0 13 -7 20 -20 20 -13 0 -20 7 -20 20 0 13 -7 20 -20 20
-17 0 -20 7 -20 40 0 33 -3 40 -20 40 -13 0 -20 7 -20 20 0 15 -7 20 -25 20
-18 0 -25 5 -25 20 0 13 -7 20 -20 20 -17 0 -20 -7 -20 -40 0 -33 3 -40 20
-40 18 0 20 -7 20 -60 0 -57 1 -60 25 -60 24 0 25 -3 25 -60 0 -53 2 -60 20
-60 18 0 20 -7 20 -80 0 -73 2 -80 20 -80 18 0 20 -7 20 -75 0 -68 2 -75 20
-75 19 0 20 -7 20 -100 l0 -100 25 0 25 0 0 -120 c0 -113 1 -120 20 -120 19 0
20 -7 20 -155 0 -148 1 -155 20 -155 20 0 20 -7 20 -300 0 -293 0 -300 20
-300 19 0 20 -7 20 -175 0 -168 -1 -175 -20 -175 -20 0 -20 -7 -20 -315 0
-308 0 -315 -20 -315 -19 0 -20 -7 -20 -160 0 -153 -1 -160 -20 -160 -19 0
-20 -7 -20 -140 l0 -140 -25 0 -25 0 0 -115 c0 -108 -1 -115 -20 -115 -19 0
-20 -7 -20 -100 0 -93 -1 -100 -20 -100 -19 0 -20 -7 -20 -100 0 -93 -1 -100
-20 -100 -18 0 -20 -7 -20 -80 0 -79 0 -80 -25 -80 -24 0 -25 -2 -25 -75 0
-68 -2 -75 -20 -75 -18 0 -20 -7 -20 -80 0 -73 -2 -80 -20 -80 -18 0 -20 -7
-20 -80 0 -79 0 -80 -25 -80 -24 0 -25 -3 -25 -60 0 -53 -2 -60 -20 -60 -18 0
-20 -7 -20 -60 0 -53 -2 -60 -20 -60 -18 0 -20 -7 -20 -75 0 -68 -2 -75 -20
-75 -18 0 -20 -7 -20 -60 0 -57 -1 -60 -25 -60 -24 0 -25 -3 -25 -60 0 -53 -2
-60 -20 -60 -18 0 -20 -7 -20 -60 0 -53 -2 -60 -20 -60 -17 0 -20 -7 -20 -40
0 -33 -3 -40 -20 -40 -18 0 -20 -7 -20 -60 0 -57 -1 -60 -25 -60 -24 0 -25 -3
-25 -55 0 -48 -2 -55 -20 -55 -18 0 -20 -7 -20 -60 0 -53 -2 -60 -20 -60 -17
0 -20 -7 -20 -40 0 -36 -2 -40 -25 -40 -24 0 -25 -3 -25 -60 0 -53 -2 -60 -20
-60 -17 0 -20 -7 -20 -40 0 -33 -3 -40 -20 -40 -18 0 -20 -7 -20 -60 0 -53 -2
-60 -20 -60 -17 0 -20 -7 -20 -40 0 -36 -2 -40 -25 -40 -22 0 -25 -4 -25 -40
0 -33 -3 -40 -20 -40 -18 0 -20 -7 -20 -55 0 -48 -2 -55 -20 -55 -17 0 -20 -7
-20 -40 0 -33 -3 -40 -20 -40 -17 0 -20 -7 -20 -40 0 -36 -2 -40 -25 -40 -22
0 -25 -4 -25 -40 0 -33 -3 -40 -20 -40 -17 0 -20 -7 -20 -40 0 -33 -3 -40 -20
-40 -17 0 -20 -7 -20 -40 0 -33 -3 -40 -20 -40 -17 0 -20 -7 -20 -40 0 -36 -2
-40 -25 -40 -22 0 -25 -4 -25 -40 0 -33 -3 -40 -20 -40 -17 0 -20 -7 -20 -40
0 -33 -3 -40 -20 -40 -16 0 -20 -7 -20 -35 0 -31 -3 -35 -25 -35 -22 0 -25 -4
-25 -40 0 -33 -3 -40 -20 -40 -17 0 -20 -7 -20 -40 0 -33 -3 -40 -20 -40 -17
0 -20 -7 -20 -40 0 -33 -3 -40 -20 -40 -17 0 -20 -7 -20 -40 0 -36 -2 -40 -25
-40 -22 0 -25 -4 -25 -40 0 -33 -3 -40 -20 -40 -13 0 -20 -7 -20 -20 0 -13 -7
-20 -20 -20 -17 0 -20 -7 -20 -40 0 -33 -3 -40 -20 -40 -17 0 -20 -7 -20 -40
0 -36 -2 -40 -25 -40 -22 0 -25 -4 -25 -40 0 -36 3 -40 25 -40 18 0 25 -5 25
-20 0 -19 7 -20 190 -20 162 0 190 -2 190 -15 0 -13 28 -15 190 -15 183 0 190
-1 190 -20 0 -19 7 -20 150 -20 143 0 150 -1 150 -20 0 -19 7 -20 150 -20 143
0 150 -1 150 -20 0 -19 7 -20 150 -20 143 0 150 -1 150 -20 0 -19 7 -20 130
-20 123 0 130 -1 130 -20 0 -19 7 -20 105 -20 98 0 105 -1 105 -20 0 -18 7
-20 85 -20 78 0 85 -2 85 -20 0 -19 7 -20 130 -20 123 0 130 -1 130 -20 0 -19
7 -20 125 -20 118 0 125 -1 125 -20 0 -19 7 -20 110 -20 103 0 110 -1 110 -20
0 -19 7 -20 105 -20 98 0 105 -1 105 -20 0 -19 7 -20 105 -20 98 0 105 -1 105
-20 0 -19 7 -20 110 -20 103 0 110 -1 110 -20 0 -19 7 -20 105 -20 98 0 105
-1 105 -20 0 -19 7 -20 110 -20 103 0 110 -1 110 -20 0 -19 7 -20 105 -20 98
0 105 -1 105 -20 0 -18 7 -20 85 -20 78 0 85 -2 85 -20 0 -19 7 -20 105 -20
98 0 105 -1 105 -20 0 -18 7 -20 85 -20 69 0 85 -3 85 -15 0 -12 16 -15 85
-15 78 0 85 -2 85 -20 0 -19 7 -20 110 -20 103 0 110 -1 110 -20 0 -18 7 -20
85 -20 78 0 85 -2 85 -20 0 -18 7 -20 85 -20 78 0 85 -2 85 -20 0 -18 7 -20
85 -20 78 0 85 -2 85 -20 0 -18 7 -20 85 -20 78 0 85 -2 85 -20 0 -18 7 -20
85 -20 78 0 85 -2 85 -20 0 -18 7 -20 85 -20 78 0 85 -2 85 -20 0 -18 7 -20
85 -20 78 0 85 -2 85 -20 0 -18 7 -20 85 -20 78 0 85 -2 85 -20 0 -19 7 -20
90 -20 83 0 90 -1 90 -20 0 -18 7 -20 85 -20 78 0 85 -2 85 -20 0 -18 7 -20
60 -20 53 0 60 -2 60 -20 0 -19 7 -20 90 -20 83 0 90 -1 90 -20 0 -18 7 -20
85 -20 78 0 85 -2 85 -20 0 -18 7 -20 60 -20 53 0 60 -2 60 -20 0 -18 7 -20
85 -20 78 0 85 -2 85 -20 0 -18 7 -20 65 -20 58 0 65 -2 65 -20 0 -18 7 -20
85 -20 69 0 85 -3 85 -15 0 -12 14 -15 65 -15 58 0 65 -2 65 -20 0 -18 7 -20
85 -20 78 0 85 -2 85 -20 0 -18 7 -20 65 -20 58 0 65 -2 65 -20 0 -18 7 -20
85 -20 78 0 85 -2 85 -20 0 -18 7 -20 65 -20 58 0 65 -2 65 -20 0 -18 7 -20
65 -20 58 0 65 -2 65 -20 0 -18 7 -20 85 -20 78 0 85 -2 85 -20 0 -18 7 -20
65 -20 58 0 65 -2 65 -20 0 -18 7 -20 65 -20 58 0 65 -2 65 -20 0 -18 7 -20
85 -20 78 0 85 -2 85 -20 0 -18 7 -20 60 -20 53 0 60 -2 60 -20 0 -18 7 -20
65 -20 58 0 65 -2 65 -20 0 -18 7 -20 65 -20 58 0 65 -2 65 -20 0 -18 7 -20
65 -20 58 0 65 -2 65 -20 0 -18 7 -20 65 -20 58 0 65 -2 65 -20 0 -18 7 -20
60 -20 53 0 60 -2 60 -20 0 -19 7 -20 90 -20 83 0 90 -1 90 -20 0 -18 7 -20
60 -20 53 0 60 -2 60 -20 0 -18 7 -20 65 -20 51 0 65 -3 65 -15 0 -12 14 -15
65 -15 58 0 65 -2 65 -20 0 -18 7 -20 65 -20 58 0 65 -2 65 -20 0 -18 7 -20
65 -20 58 0 65 -2 65 -20 0 -18 7 -20 60 -20 53 0 60 -2 60 -20 0 -17 7 -20
45 -20 38 0 45 -3 45 -20 0 -18 7 -20 65 -20 58 0 65 -2 65 -20 0 -18 7 -20
85 -20 78 0 85 -2 85 -20 0 -18 7 -20 65 -20 58 0 65 -2 65 -20 0 -18 7 -20
60 -20 53 0 60 -2 60 -20 0 -15 7 -20 25 -20 18 0 25 5 25 20 0 15 -7 20 -25
20 -18 0 -25 5 -25 20 0 13 -7 20 -20 20 -13 0 -20 7 -20 20 0 17 -7 20 -40
20 -33 0 -40 3 -40 20 0 15 -7 20 -25 20 -18 0 -25 5 -25 20 0 13 -7 20 -20
20 -13 0 -20 7 -20 20 0 13 -7 20 -20 20 -13 0 -20 7 -20 20 0 13 -7 20 -20
20 -13 0 -20 7 -20 20 0 17 -7 20 -45 20 -38 0 -45 3 -45 20 0 13 -7 20 -20
20 -11 0 -20 7 -20 15 0 9 -9 15 -25 15 -18 0 -25 5 -25 20 0 13 -7 20 -20 20
-13 0 -20 7 -20 20 0 13 -7 20 -20 20 -13 0 -20 7 -20 20 0 13 -7 20 -20 20
-13 0 -20 7 -20 20 0 17 -7 20 -45 20 -38 0 -45 3 -45 20 0 13 -7 20 -20 20
-13 0 -20 7 -20 20 0 13 -7 20 -20 20 -13 0 -20 7 -20 20 0 15 -7 20 -25 20
-18 0 -25 5 -25 20 0 13 -7 20 -20 20 -13 0 -20 7 -20 20 0 13 -7 20 -20 20
-13 0 -20 7 -20 20 0 17 -7 20 -45 20 -38 0 -45 3 -45 20 0 13 -7 20 -20 20
-13 0 -20 7 -20 20 0 13 -7 20 -20 20 -13 0 -20 7 -20 20 0 15 -7 20 -25 20
-18 0 -25 5 -25 20 0 13 -7 20 -20 20 -13 0 -20 7 -20 20 0 13 -7 20 -20 20
-13 0 -20 7 -20 20 0 17 -7 20 -45 20 -38 0 -45 3 -45 20 0 13 -7 20 -20 20
-13 0 -20 7 -20 20 0 13 -7 20 -20 20 -11 0 -20 7 -20 15 0 8 -9 15 -20 15
-13 0 -20 7 -20 20 0 15 -7 20 -25 20 -18 0 -25 5 -25 20 0 13 -7 20 -20 20
-13 0 -20 7 -20 20 0 13 -7 20 -20 20 -13 0 -20 7 -20 20 0 15 -7 20 -25 20
-18 0 -25 5 -25 20 0 17 -7 20 -40 20 -33 0 -40 3 -40 20 0 13 -7 20 -20 20
-13 0 -20 7 -20 20 0 15 -7 20 -25 20 -18 0 -25 5 -25 20 0 13 -7 20 -20 20
-13 0 -20 7 -20 20 0 13 -7 20 -20 20 -13 0 -20 7 -20 20 0 13 -7 20 -20 20
-13 0 -20 7 -20 20 0 15 -7 20 -25 20 -18 0 -25 5 -25 20 0 13 -7 20 -20 20
-13 0 -20 7 -20 20 0 13 -7 20 -20 20 -13 0 -20 7 -20 20 0 15 -7 20 -25 20
-18 0 -25 5 -25 20 0 17 -7 20 -40 20 -33 0 -40 3 -40 20 0 13 -7 20 -20 20
-13 0 -20 7 -20 20 0 15 -7 20 -25 20 -18 0 -25 5 -25 20 0 13 -7 20 -20 20
-11 0 -20 7 -20 15 0 8 -9 15 -20 15 -13 0 -20 7 -20 20 0 13 -7 20 -20 20
-13 0 -20 7 -20 20 0 15 -7 20 -25 20 -18 0 -25 5 -25 20 0 13 -7 20 -20 20
-13 0 -20 7 -20 20 0 13 -7 20 -20 20 -13 0 -20 7 -20 20 0 13 -7 20 -20 20
-13 0 -20 7 -20 20 0 15 -7 20 -25 20 -18 0 -25 5 -25 20 0 13 -7 20 -20 20
-13 0 -20 7 -20 20 0 13 -7 20 -20 20 -13 0 -20 7 -20 20 0 17 -7 20 -45 20
-38 0 -45 3 -45 20 0 13 -7 20 -20 20 -13 0 -20 7 -20 20 0 13 -7 20 -20 20
-13 0 -20 7 -20 20 0 15 -7 20 -25 20 -18 0 -25 5 -25 20 0 13 -7 20 -20 20
-13 0 -20 7 -20 20 0 13 -7 20 -20 20 -13 0 -20 7 -20 20 0 13 -7 20 -20 20
-13 0 -20 7 -20 20 0 15 -7 20 -25 20 -18 0 -25 5 -25 20 0 13 -7 20 -20 20
-13 0 -20 7 -20 20 0 13 -7 20 -20 20 -16 0 -20 7 -20 35 0 28 4 35 20 35 13
0 20 7 20 20 0 13 7 20 20 20 17 0 20 7 20 40 0 33 -3 40 -20 40 -17 0 -20 7
-20 40 0 33 -3 40 -20 40 -13 0 -20 7 -20 20 0 15 -7 20 -25 20 l-25 0 0 100
0 100 45 0 c38 0 45 -3 45 -20 0 -18 7 -20 85 -20 l85 0 0 40 c0 33 -3 40 -20
40 -13 0 -20 7 -20 20 0 13 -7 20 -20 20 -13 0 -20 7 -20 20 0 15 -7 20 -25
20 -18 0 -25 5 -25 20 0 13 -7 20 -20 20 -17 0 -20 7 -20 40 0 33 -3 40 -20
40 -16 0 -20 7 -20 35 0 31 -3 35 -25 35 -22 0 -25 4 -25 40 0 33 -3 40 -20
40 -18 0 -20 7 -20 80 l0 80 65 0 c58 0 65 2 65 20 0 17 7 20 45 20 38 0 45 3
45 20 0 13 7 20 20 20 13 0 20 7 20 20 0 13 -7 20 -20 20 -13 0 -20 7 -20 20
0 15 -7 20 -25 20 -22 0 -25 4 -25 40 0 33 -3 40 -20 40 -13 0 -20 7 -20 20 0
13 -7 20 -20 20 -17 0 -20 7 -20 40 0 36 -2 40 -25 40 -22 0 -25 4 -25 40 0
33 -3 40 -20 40 -18 0 -20 7 -20 55 0 48 -2 55 -20 55 -19 0 -20 7 -20 120 l0
120 40 0 c33 0 40 -3 40 -20 0 -15 7 -20 25 -20 18 0 25 -5 25 -20 0 -17 7
-20 40 -20 33 0 40 -3 40 -20 0 -17 7 -20 45 -20 38 0 45 -3 45 -20 0 -18 7
-20 65 -20 58 0 65 2 65 20 0 15 -7 20 -25 20 -22 0 -25 4 -25 40 0 33 -3 40
-20 40 -18 0 -20 7 -20 60 0 53 -2 60 -20 60 -20 0 -20 7 -20 275 l0 275 65 0
c58 0 65 2 65 20 0 13 7 20 20 20 19 0 20 7 20 180 0 173 -1 180 -20 180 -18
0 -20 7 -20 75 0 73 -1 75 -25 75 -24 0 -25 3 -25 60 0 57 1 60 25 60 l25 0 0
200 0 200 -25 0 c-24 0 -25 3 -25 60 0 53 -2 60 -20 60 -19 0 -20 7 -20 95 0
88 -1 95 -20 95 -17 0 -20 7 -20 40 0 33 3 40 20 40 19 0 20 7 20 100 0 93 1
100 20 100 17 0 20 7 20 40 0 36 3 40 25 40 18 0 25 5 25 20 0 13 7 20 20 20
13 0 20 7 20 20 0 17 7 20 40 20 33 0 40 3 40 20 0 15 7 20 25 20 24 0 25 3
25 60 0 53 2 60 20 60 16 0 20 7 20 35 0 28 -4 35 -20 35 -17 0 -20 7 -20 40
0 36 -2 40 -25 40 -22 0 -25 4 -25 40 0 33 -3 40 -20 40 -13 0 -20 7 -20 20 0
13 7 20 20 20 13 0 20 7 20 20 0 15 7 20 25 20 23 0 25 4 25 40 0 33 3 40 20
40 13 0 20 7 20 20 0 13 7 20 20 20 17 0 20 7 20 40 0 36 3 40 25 40 24 0 25
3 25 60 0 53 2 60 20 60 18 0 20 7 20 60 0 53 2 60 20 60 19 0 20 7 20 95 0
88 1 95 20 95 19 0 20 7 20 240 l0 240 25 0 c18 0 25 5 25 20 0 13 7 20 20 20
13 0 20 7 20 20 0 17 7 20 40 20 33 0 40 3 40 20 0 15 7 20 25 20 16 0 25 6
25 15 0 8 9 15 20 15 13 0 20 7 20 20 0 13 7 20 20 20 17 0 20 7 20 40 0 33 3
40 20 40 13 0 20 7 20 20 0 15 7 20 25 20 23 0 25 4 25 40 0 33 3 40 20 40 17
0 20 7 20 40 0 33 3 40 20 40 17 0 20 7 20 40 0 36 3 40 25 40 24 0 25 3 25
60 0 53 2 60 20 60 19 0 20 7 20 115 0 108 1 115 20 115 18 0 20 7 20 80 0 73
2 80 20 80 18 0 20 7 20 60 0 57 1 60 25 60 23 0 25 4 25 40 0 33 3 40 20 40
18 0 20 7 20 60 0 53 2 60 20 60 17 0 20 7 20 40 0 33 3 40 20 40 17 0 20 7
20 40 0 36 3 40 25 40 23 0 25 4 25 40 0 33 3 40 20 40 11 0 20 7 20 15 0 8 9
15 20 15 17 0 20 7 20 40 0 36 3 40 25 40 18 0 25 5 25 20 0 13 7 20 20 20 17
0 20 7 20 40 0 33 3 40 20 40 13 0 20 7 20 20 0 13 7 20 20 20 13 0 20 7 20
20 0 15 7 20 25 20 23 0 25 4 25 40 0 33 3 40 20 40 13 0 20 7 20 20 0 13 7
20 20 20 13 0 20 7 20 20 0 13 7 20 20 20 13 0 20 7 20 20 0 15 7 20 25 20 18
0 25 5 25 20 0 20 -7 20 -385 20 -378 0 -385 0 -385 -20 0 -19 -7 -20 -130
-20 -123 0 -130 -1 -130 -20 0 -18 -7 -20 -85 -20 -78 0 -85 -2 -85 -20 0 -18
-7 -20 -85 -20 -78 0 -85 -2 -85 -20 0 -18 -7 -20 -65 -20 -58 0 -65 -2 -65
-20 0 -18 -7 -20 -65 -20 -58 0 -65 -2 -65 -20 0 -18 -7 -20 -60 -20 -53 0
-60 -2 -60 -20 0 -17 -7 -20 -45 -20 -38 0 -45 -3 -45 -20 0 -18 -7 -20 -65
-20 -58 0 -65 -2 -65 -20 0 -17 -7 -20 -40 -20 -33 0 -40 -3 -40 -20 0 -17 -7
-20 -45 -20 -38 0 -45 -3 -45 -20 0 -17 -7 -20 -40 -20 -33 0 -40 -3 -40 -20
0 -17 -7 -20 -45 -20 -38 0 -45 -3 -45 -20 0 -17 -7 -20 -40 -20 -29 0 -40 -4
-40 -15 0 -12 -14 -15 -65 -15 -51 0 -65 3 -65 15 0 12 -14 15 -65 15 -58 0
-65 2 -65 20 0 18 -7 20 -65 20 -58 0 -65 2 -65 20 0 18 -7 20 -65 20 -58 0
-65 2 -65 20 0 18 -7 20 -85 20 -78 0 -85 2 -85 20 0 19 -7 20 -125 20 -118 0
-125 1 -125 20 0 19 -7 20 -175 20 -168 0 -175 1 -175 20 0 20 -7 20 -660 20
-653 0 -660 0 -660 -20 0 -19 -7 -20 -105 -20 l-105 0 0 80 c0 79 0 80 -25 80
-22 0 -25 4 -25 40 0 33 -3 40 -20 40 -17 0 -20 7 -20 40 0 33 -3 40 -20 40
-17 0 -20 7 -20 40 0 33 -3 40 -20 40 -13 0 -20 7 -20 20 0 15 -7 20 -25 20
-18 0 -25 5 -25 20 0 13 -7 20 -20 20 -13 0 -20 7 -20 20 0 13 -7 20 -20 20
-11 0 -20 7 -20 15 0 8 -9 15 -20 15 -13 0 -20 7 -20 20 0 15 -7 20 -25 20
-18 0 -25 5 -25 20 0 13 -7 20 -20 20 -13 0 -20 7 -20 20 0 13 -7 20 -20 20
-13 0 -20 7 -20 20 0 15 -7 20 -25 20 -18 0 -25 5 -25 20 0 13 -7 20 -20 20
-13 0 -20 7 -20 20 0 13 -7 20 -20 20 -13 0 -20 7 -20 20 0 13 -7 20 -20 20
-13 0 -20 7 -20 20 0 15 -7 20 -25 20 -18 0 -25 5 -25 20 0 17 -7 20 -40 20
-33 0 -40 3 -40 20 0 13 -7 20 -20 20 -13 0 -20 7 -20 20 0 15 -7 20 -25 20
-18 0 -25 5 -25 20 0 17 -7 20 -40 20 -33 0 -40 3 -40 20 0 15 -7 20 -25 20
-18 0 -25 5 -25 20 0 17 -7 20 -40 20 -33 0 -40 3 -40 20 0 13 -7 20 -20 20
-13 0 -20 7 -20 20 0 17 -7 20 -45 20 -38 0 -45 3 -45 20 0 13 -7 20 -20 20
-16 0 -20 7 -20 35 0 28 -4 35 -20 35 -13 0 -20 7 -20 20 0 15 -7 20 -25 20
-22 0 -25 4 -25 40 0 33 -3 40 -20 40 -17 0 -20 7 -20 40 0 33 -3 40 -20 40
-18 0 -20 7 -20 80 0 73 -2 80 -20 80 -17 0 -20 -7 -20 -40z m-2310 -1740 c0
-33 3 -40 20 -40 13 0 20 -7 20 -20 0 -13 7 -20 20 -20 11 0 20 -7 20 -15 0
-9 9 -15 25 -15 23 0 25 -4 25 -40 0 -33 3 -40 20 -40 13 0 20 -7 20 -20 0
-13 7 -20 20 -20 13 0 20 -7 20 -20 0 -15 7 -20 25 -20 23 0 25 -4 25 -40 0
-33 3 -40 20 -40 13 0 20 -7 20 -20 0 -13 7 -20 20 -20 13 0 20 -7 20 -20 0
-13 7 -20 20 -20 17 0 20 -7 20 -40 0 -36 3 -40 25 -40 18 0 25 -5 25 -20 0
-13 7 -20 20 -20 13 0 20 -7 20 -20 0 -13 7 -20 20 -20 17 0 20 -7 20 -40 0
-33 3 -40 20 -40 13 0 20 -7 20 -20 0 -15 7 -20 25 -20 18 0 25 -5 25 -20 0
-13 7 -20 20 -20 17 0 20 -7 20 -40 0 -33 3 -40 20 -40 11 0 20 -7 20 -15 0
-8 9 -15 20 -15 13 0 20 -7 20 -20 0 -15 7 -20 25 -20 23 0 25 -4 25 -40 0
-33 3 -40 20 -40 13 0 20 -7 20 -20 0 -13 7 -20 20 -20 13 0 20 -7 20 -20 0
-15 7 -20 25 -20 23 0 25 -4 25 -40 0 -33 3 -40 20 -40 13 0 20 -7 20 -20 0
-13 7 -20 20 -20 13 0 20 -7 20 -20 0 -13 7 -20 20 -20 17 0 20 -7 20 -40 0
-36 3 -40 25 -40 18 0 25 -5 25 -20 0 -13 7 -20 20 -20 13 0 20 -7 20 -20 0
-13 7 -20 20 -20 17 0 20 -7 20 -40 0 -33 3 -40 20 -40 13 0 20 -7 20 -20 0
-15 7 -20 25 -20 18 0 25 -5 25 -20 0 -13 7 -20 20 -20 16 0 20 -7 20 -35 0
-28 4 -35 20 -35 13 0 20 -7 20 -20 0 -15 7 -20 25 -20 18 0 25 -5 25 -20 0
-13 7 -20 20 -20 17 0 20 -7 20 -40 0 -33 3 -40 20 -40 13 0 20 -7 20 -20 0
-13 7 -20 20 -20 13 0 20 -7 20 -20 0 -15 7 -20 25 -20 23 0 25 -4 25 -40 0
-33 3 -40 20 -40 13 0 20 -7 20 -20 0 -13 7 -20 20 -20 13 0 20 -7 20 -20 0
-13 7 -20 20 -20 17 0 20 -7 20 -40 0 -36 3 -40 25 -40 18 0 25 -5 25 -20 0
-13 7 -20 20 -20 17 0 20 -7 20 -40 0 -33 3 -40 20 -40 13 0 20 -7 20 -20 0
-15 7 -20 25 -20 18 0 25 -5 25 -20 0 -13 7 -20 20 -20 16 0 20 -7 20 -35 0
-28 4 -35 20 -35 13 0 20 -7 20 -20 0 -13 7 -20 20 -20 13 0 20 -7 20 -20 0
-15 7 -20 25 -20 23 0 25 -4 25 -40 0 -33 3 -40 20 -40 13 0 20 -7 20 -20 0
-13 7 -20 20 -20 13 0 20 -7 20 -20 0 -13 7 -20 20 -20 17 0 20 -7 20 -40 0
-36 3 -40 25 -40 24 0 25 -3 25 -60 0 -53 2 -60 20 -60 17 0 20 -7 20 -40 0
-33 3 -40 20 -40 17 0 20 -7 20 -40 0 -36 3 -40 25 -40 23 0 25 -4 25 -40 0
-33 3 -40 20 -40 13 0 20 -7 20 -20 0 -13 -7 -20 -20 -20 -13 0 -20 7 -20 20
0 15 -7 20 -25 20 -22 0 -25 4 -25 40 0 33 -3 40 -20 40 -17 0 -20 7 -20 40 0
33 -3 40 -20 40 -17 0 -20 7 -20 40 0 36 -2 40 -25 40 -18 0 -25 5 -25 20 0
13 -7 20 -20 20 -17 0 -20 7 -20 40 0 33 -3 40 -20 40 -13 0 -20 7 -20 20 0
13 -7 20 -20 20 -13 0 -20 7 -20 20 0 15 -7 20 -25 20 -22 0 -25 4 -25 40 0
33 -3 40 -20 40 -13 0 -20 7 -20 20 0 13 -7 20 -20 20 -13 0 -20 7 -20 20 0
13 -7 20 -20 20 -17 0 -20 7 -20 40 0 36 -2 40 -25 40 -16 0 -25 6 -25 15 0 8
-9 15 -20 15 -13 0 -20 7 -20 20 0 13 -7 20 -20 20 -13 0 -20 7 -20 20 0 15
-7 20 -25 20 -18 0 -25 5 -25 20 0 13 -7 20 -20 20 -13 0 -20 7 -20 20 0 18
-7 20 -65 20 l-65 0 0 -80 0 -80 45 0 c33 0 45 -4 45 -15 0 -8 9 -15 20 -15
13 0 20 -7 20 -20 0 -13 7 -20 20 -20 13 0 20 -7 20 -20 0 -15 7 -20 25 -20
18 0 25 -5 25 -20 0 -13 7 -20 20 -20 13 0 20 -7 20 -20 0 -13 7 -20 20 -20
13 0 20 -7 20 -20 0 -15 7 -20 25 -20 18 0 25 -5 25 -20 0 -13 7 -20 20 -20
13 0 20 -7 20 -20 0 -13 7 -20 20 -20 13 0 20 -7 20 -20 0 -13 7 -20 20 -20
13 0 20 -7 20 -20 0 -15 7 -20 25 -20 23 0 25 -4 25 -40 0 -33 3 -40 20 -40
13 0 20 -7 20 -20 0 -13 7 -20 20 -20 17 0 20 -7 20 -40 0 -33 3 -40 20 -40
13 0 20 -7 20 -20 0 -15 7 -20 25 -20 23 0 25 -4 25 -40 0 -33 3 -40 20 -40
16 0 20 -7 20 -35 0 -28 4 -35 20 -35 17 0 20 -7 20 -40 0 -36 3 -40 25 -40
23 0 25 -4 25 -40 0 -33 3 -40 20 -40 17 0 20 -7 20 -40 0 -33 3 -40 20 -40
18 0 20 -7 20 -60 0 -53 2 -60 20 -60 18 0 20 -7 20 -60 0 -57 1 -60 25 -60
24 0 25 -3 25 -60 0 -57 -1 -60 -25 -60 -24 0 -25 3 -25 60 0 53 -2 60 -20 60
-17 0 -20 7 -20 40 0 33 -3 40 -20 40 -17 0 -20 7 -20 40 0 33 -3 40 -20 40
-17 0 -20 7 -20 40 0 36 -2 40 -25 40 -22 0 -25 4 -25 40 0 33 -3 40 -20 40
-13 0 -20 7 -20 20 0 13 -7 20 -20 20 -17 0 -20 7 -20 40 0 36 -2 40 -25 40
-18 0 -25 5 -25 20 0 13 -7 20 -20 20 -16 0 -20 7 -20 35 0 28 -4 35 -20 35
-13 0 -20 7 -20 20 0 13 -7 20 -20 20 -13 0 -20 7 -20 20 0 15 -7 20 -25 20
-18 0 -25 5 -25 20 0 13 -7 20 -20 20 -17 0 -20 7 -20 40 0 33 -3 40 -20 40
-13 0 -20 7 -20 20 0 13 -7 20 -20 20 -13 0 -20 7 -20 20 0 15 -7 20 -25 20
-18 0 -25 5 -25 20 0 13 -7 20 -20 20 -13 0 -20 7 -20 20 0 17 -7 20 -45 20
-38 0 -45 3 -45 20 0 13 -7 20 -20 20 -13 0 -20 7 -20 20 0 17 -7 20 -40 20
-33 0 -40 -3 -40 -20 0 -15 -7 -20 -25 -20 -22 0 -25 -4 -25 -40 0 -36 3 -40
25 -40 18 0 25 -5 25 -20 0 -17 7 -20 40 -20 33 0 40 -3 40 -20 0 -13 7 -20
20 -20 13 0 20 -7 20 -20 0 -15 7 -20 25 -20 18 0 25 -5 25 -20 0 -17 7 -20
40 -20 33 0 40 -3 40 -20 0 -15 7 -20 25 -20 18 0 25 -5 25 -20 0 -13 7 -20
20 -20 17 0 20 -7 20 -40 0 -33 3 -40 20 -40 13 0 20 -7 20 -20 0 -13 7 -20
20 -20 11 0 20 -7 20 -15 0 -9 9 -15 25 -15 23 0 25 -4 25 -40 0 -33 3 -40 20
-40 13 0 20 -7 20 -20 0 -13 7 -20 20 -20 17 0 20 -7 20 -40 0 -33 3 -40 20
-40 17 0 20 -7 20 -40 0 -36 3 -40 25 -40 18 0 25 -5 25 -20 0 -13 7 -20 20
-20 17 0 20 -7 20 -40 0 -33 3 -40 20 -40 18 0 20 -7 20 -60 0 -57 1 -60 25
-60 23 0 25 -4 25 -40 0 -33 3 -40 20 -40 18 0 20 -7 20 -60 0 -53 2 -60 20
-60 11 0 20 -7 20 -15 0 -8 -9 -15 -20 -15 -17 0 -20 -7 -20 -40 0 -33 -3 -40
-20 -40 -17 0 -20 7 -20 40 0 36 -2 40 -25 40 -24 0 -25 3 -25 55 0 48 -2 55
-20 55 -17 0 -20 7 -20 40 0 33 -3 40 -20 40 -13 0 -20 7 -20 20 0 15 -7 20
-25 20 -22 0 -25 4 -25 40 0 33 -3 40 -20 40 -13 0 -20 7 -20 20 0 13 -7 20
-20 20 -13 0 -20 7 -20 20 0 13 -7 20 -20 20 -13 0 -20 7 -20 20 0 15 -7 20
-25 20 -18 0 -25 5 -25 20 0 13 -7 20 -20 20 -17 0 -20 7 -20 40 0 33 -3 40
-20 40 -13 0 -20 7 -20 20 0 13 -7 20 -20 20 -13 0 -20 7 -20 20 0 17 -7 20
-45 20 -38 0 -45 3 -45 20 0 13 -7 20 -20 20 -13 0 -20 7 -20 20 0 15 -7 20
-25 20 -18 0 -25 5 -25 20 0 13 -7 20 -20 20 -11 0 -20 7 -20 15 0 11 -11 15
-40 15 -33 0 -40 3 -40 20 0 18 -7 20 -65 20 l-65 0 0 -55 c0 -48 2 -55 20
-55 13 0 20 -7 20 -20 0 -13 7 -20 20 -20 13 0 20 -7 20 -20 0 -17 7 -20 45
-20 38 0 45 -3 45 -20 0 -17 7 -20 40 -20 33 0 40 -3 40 -20 0 -15 7 -20 25
-20 18 0 25 -5 25 -20 0 -17 7 -20 40 -20 33 0 40 -3 40 -20 0 -15 7 -20 25
-20 18 0 25 -5 25 -20 0 -13 7 -20 20 -20 13 0 20 -7 20 -20 0 -13 7 -20 20
-20 17 0 20 -7 20 -40 0 -33 3 -40 20 -40 13 0 20 -7 20 -20 0 -15 7 -20 25
-20 18 0 25 -5 25 -20 0 -13 7 -20 20 -20 17 0 20 -7 20 -40 0 -33 3 -40 20
-40 17 0 20 -7 20 -40 0 -33 3 -40 20 -40 16 0 20 -7 20 -35 0 -31 3 -35 25
-35 23 0 25 -4 25 -40 0 -33 3 -40 20 -40 18 0 20 -7 20 -80 0 -73 -2 -80 -20
-80 -18 0 -20 -7 -20 -60 0 -57 -1 -60 -25 -60 -24 0 -25 -3 -25 -60 0 -53 -2
-60 -20 -60 -18 0 -20 -7 -20 -80 0 -73 -2 -80 -20 -80 -18 0 -20 -7 -20 -75
0 -68 -2 -75 -20 -75 -18 0 -20 -7 -20 -60 0 -53 2 -60 20 -60 17 0 20 -7 20
-40 0 -33 3 -40 20 -40 17 0 20 -7 20 -40 0 -33 3 -40 20 -40 13 0 20 -7 20
-20 0 -15 7 -20 25 -20 18 0 25 -5 25 -20 0 -17 7 -20 40 -20 33 0 40 -3 40
-20 0 -15 7 -20 25 -20 18 0 25 -5 25 -20 0 -17 7 -20 40 -20 33 0 40 -3 40
-20 0 -17 7 -20 45 -20 38 0 45 -3 45 -20 0 -17 7 -20 40 -20 33 0 40 -3 40
-20 0 -13 7 -20 20 -20 17 0 20 7 20 40 0 36 3 40 25 40 18 0 25 5 25 20 0 18
7 20 60 20 53 0 60 2 60 20 0 17 7 20 45 20 38 0 45 3 45 20 0 18 7 20 65 20
58 0 65 2 65 20 0 13 7 20 20 20 13 0 20 7 20 20 0 13 7 20 20 20 13 0 20 7
20 20 0 15 7 20 25 20 23 0 25 4 25 40 0 33 3 40 20 40 17 0 20 7 20 40 0 33
3 40 20 40 18 0 20 7 20 60 0 53 2 60 20 60 11 0 20 7 20 15 0 9 9 15 25 15
18 0 25 5 25 20 0 13 7 20 20 20 13 0 20 7 20 20 0 13 7 20 20 20 17 0 20 7
20 40 0 36 3 40 25 40 18 0 25 5 25 20 0 13 7 20 20 20 13 0 20 7 20 20 0 13
7 20 20 20 13 0 20 7 20 20 0 17 7 20 45 20 38 0 45 3 45 20 0 13 7 20 20 20
13 0 20 7 20 20 0 13 7 20 20 20 13 0 20 7 20 20 0 13 7 20 20 20 13 0 20 7
20 20 0 15 7 20 25 20 18 0 25 5 25 20 0 17 7 20 40 20 33 0 40 3 40 20 0 17
7 20 45 20 38 0 45 3 45 20 0 17 7 20 40 20 33 0 40 3 40 20 0 17 7 20 45 20
38 0 45 3 45 20 0 17 7 20 40 20 33 0 40 3 40 20 0 17 7 20 45 20 38 0 45 3
45 20 0 17 7 20 40 20 29 0 40 4 40 15 0 11 12 15 45 15 38 0 45 3 45 20 0 17
7 20 45 20 38 0 45 3 45 20 0 17 7 20 40 20 33 0 40 3 40 20 0 17 7 20 45 20
38 0 45 3 45 20 0 17 7 20 40 20 33 0 40 3 40 20 0 17 7 20 45 20 38 0 45 3
45 20 0 17 7 20 40 20 33 0 40 3 40 20 0 15 7 20 25 20 18 0 25 5 25 20 0 17
7 20 40 20 33 0 40 3 40 20 0 13 7 20 20 20 13 0 20 7 20 20 0 18 7 20 65 20
58 0 65 -2 65 -20 0 -18 7 -20 65 -20 58 0 65 2 65 20 0 17 7 20 45 20 38 0
45 3 45 20 0 13 7 20 20 20 13 0 20 7 20 20 0 17 7 20 40 20 33 0 40 3 40 20
0 17 7 20 45 20 38 0 45 3 45 20 0 19 7 20 170 20 163 0 170 1 170 20 0 13 7
20 20 20 13 0 20 7 20 20 0 15 7 20 25 20 18 0 25 5 25 20 0 13 7 20 20 20 13
0 20 7 20 20 0 19 7 20 105 20 87 0 105 3 105 15 0 11 12 15 45 15 38 0 45 3
45 20 0 17 7 20 40 20 33 0 40 3 40 20 0 18 7 20 65 20 58 0 65 2 65 20 0 19
7 20 170 20 l170 0 0 -60 c0 -53 -2 -60 -20 -60 -11 0 -20 -7 -20 -15 0 -8 -9
-15 -20 -15 -13 0 -20 -7 -20 -20 0 -15 -7 -20 -25 -20 -22 0 -25 -4 -25 -40
0 -33 -3 -40 -20 -40 -19 0 -20 -7 -20 -100 0 -93 -1 -100 -20 -100 -13 0 -20
-7 -20 -20 0 -13 -7 -20 -20 -20 -17 0 -20 -7 -20 -40 0 -33 3 -40 20 -40 18
0 20 -7 20 -80 0 -73 -2 -80 -20 -80 -18 0 -20 -7 -20 -60 0 -57 -1 -60 -25
-60 -24 0 -25 -3 -25 -55 0 -48 -2 -55 -20 -55 -19 0 -20 -7 -20 -120 0 -113
-1 -120 -20 -120 -17 0 -20 -7 -20 -40 0 -33 -3 -40 -20 -40 -17 0 -20 -7 -20
-40 0 -36 -2 -40 -25 -40 -18 0 -25 -5 -25 -20 0 -13 -7 -20 -20 -20 -17 0
-20 -7 -20 -40 0 -33 -3 -40 -20 -40 -17 0 -20 -7 -20 -40 l0 -40 -45 0 c-38
0 -45 -3 -45 -20 0 -13 -7 -20 -20 -20 -11 0 -20 -7 -20 -15 0 -8 -9 -15 -20
-15 -13 0 -20 -7 -20 -20 0 -15 -7 -20 -25 -20 -18 0 -25 -5 -25 -20 0 -13 -7
-20 -20 -20 -13 0 -20 -7 -20 -20 0 -13 -7 -20 -20 -20 -13 0 -20 -7 -20 -20
0 -13 7 -20 20 -20 13 0 20 -7 20 -20 0 -13 7 -20 20 -20 17 0 20 -7 20 -40 0
-36 3 -40 25 -40 l25 0 0 -100 0 -100 -25 0 c-22 0 -25 -4 -25 -40 0 -33 -3
-40 -20 -40 -17 0 -20 -7 -20 -40 0 -33 -3 -40 -20 -40 -17 0 -20 -7 -20 -40
0 -33 3 -40 20 -40 19 0 20 -7 20 -115 l0 -115 -40 0 -40 0 0 -40 c0 -33 3
-40 20 -40 13 0 20 -7 20 -20 0 -13 7 -20 20 -20 13 0 20 -7 20 -20 0 -13 7
-20 20 -20 18 0 20 -7 20 -80 0 -73 -2 -80 -20 -80 -13 0 -20 -7 -20 -20 0
-13 -7 -20 -20 -20 -18 0 -20 -7 -20 -60 0 -53 -2 -60 -20 -60 -19 0 -20 -7
-20 -135 0 -128 1 -135 20 -135 18 0 20 -7 20 -80 0 -73 2 -80 20 -80 17 0 20
-7 20 -40 0 -33 -3 -40 -20 -40 -17 0 -20 -7 -20 -40 0 -33 -3 -40 -20 -40
-17 0 -20 -7 -20 -40 0 -36 -2 -40 -25 -40 -22 0 -25 -4 -25 -40 0 -33 -3 -40
-20 -40 -13 0 -20 7 -20 20 0 13 -7 20 -20 20 -13 0 -20 7 -20 20 0 15 -7 20
-25 20 -18 0 -25 5 -25 20 0 13 -7 20 -20 20 -13 0 -20 7 -20 20 0 13 -7 20
-20 20 -13 0 -20 7 -20 20 0 13 -7 20 -20 20 -13 0 -20 7 -20 20 0 15 -7 20
-25 20 -18 0 -25 5 -25 20 0 13 -7 20 -20 20 -13 0 -20 7 -20 20 0 13 -7 20
-20 20 -13 0 -20 7 -20 20 0 13 -7 20 -20 20 -13 0 -20 7 -20 20 0 15 -7 20
-25 20 -22 0 -25 4 -25 40 0 33 -3 40 -20 40 -13 0 -20 7 -20 20 0 13 -7 20
-20 20 -13 0 -20 7 -20 20 0 13 -7 20 -20 20 -13 0 -20 7 -20 20 0 15 -7 20
-25 20 -18 0 -25 5 -25 20 0 13 -7 20 -20 20 -13 0 -20 7 -20 20 0 13 -7 20
-20 20 -11 0 -20 7 -20 15 0 9 -9 15 -25 15 -18 0 -25 5 -25 20 0 13 -7 20
-20 20 -13 0 -20 7 -20 20 0 13 -7 20 -20 20 -13 0 -20 7 -20 20 0 13 -7 20
-20 20 -13 0 -20 7 -20 20 0 15 -7 20 -25 20 -18 0 -25 5 -25 20 0 13 -7 20
-20 20 -17 0 -20 7 -20 40 0 33 3 40 20 40 17 0 20 -7 20 -40 l0 -40 45 0 c38
0 45 3 45 20 0 13 7 20 20 20 17 0 20 7 20 40 0 33 3 40 20 40 13 0 20 -7 20
-20 0 -15 7 -20 25 -20 23 0 25 -4 25 -40 0 -33 3 -40 20 -40 13 0 20 -7 20
-20 0 -17 7 -20 45 -20 l45 0 0 80 0 80 85 0 85 0 0 -40 0 -40 85 0 85 0 0 40
c0 33 3 40 20 40 19 0 20 7 20 100 l0 100 -45 0 c-38 0 -45 -3 -45 -20 0 -18
-7 -20 -60 -20 l-60 0 0 40 c0 36 -2 40 -25 40 -18 0 -25 5 -25 20 0 17 -7 20
-40 20 -33 0 -40 -3 -40 -20 0 -13 -7 -20 -20 -20 -18 0 -20 -7 -20 -60 0 -57
-1 -60 -25 -60 -18 0 -25 5 -25 20 0 13 -7 20 -20 20 -13 0 -20 7 -20 20 0 13
-7 20 -20 20 -17 0 -20 7 -20 40 l0 40 -65 0 c-58 0 -65 -2 -65 -20 0 -13 -7
-20 -20 -20 -18 0 -20 -7 -20 -80 0 -79 0 -80 -25 -80 -18 0 -25 -5 -25 -20 0
-13 -7 -20 -20 -20 -13 0 -20 7 -20 20 0 13 -7 20 -20 20 -13 0 -20 7 -20 20
0 13 -7 20 -20 20 -13 0 -20 7 -20 20 0 15 -7 20 -25 20 -22 0 -25 -4 -25 -40
0 -33 -3 -40 -20 -40 -13 0 -20 7 -20 20 0 13 -7 20 -20 20 -13 0 -20 7 -20
20 0 15 -7 20 -25 20 -18 0 -25 5 -25 20 0 13 -7 20 -20 20 -13 0 -20 7 -20
20 0 13 -7 20 -20 20 -13 0 -20 7 -20 20 0 13 -7 20 -20 20 -17 0 -20 7 -20
40 0 36 -2 40 -25 40 -18 0 -25 5 -25 20 0 13 -7 20 -20 20 -11 0 -20 7 -20
15 0 8 -9 15 -20 15 -13 0 -20 7 -20 20 0 13 -7 20 -20 20 -13 0 -20 7 -20 20
0 15 -7 20 -25 20 -22 0 -25 4 -25 40 l0 40 85 0 c78 0 85 -2 85 -20 0 -15 7
-20 25 -20 18 0 25 -5 25 -20 0 -13 7 -20 20 -20 13 0 20 -7 20 -20 0 -17 7
-20 40 -20 33 0 40 -3 40 -20 0 -19 7 -20 110 -20 103 0 110 1 110 20 0 17 7
20 40 20 33 0 40 3 40 20 0 15 7 20 25 20 18 0 25 5 25 20 0 13 7 20 20 20 13
0 20 7 20 20 0 13 7 20 20 20 13 0 20 7 20 20 0 13 7 20 20 20 13 0 20 7 20
20 0 15 7 20 25 20 23 0 25 4 25 40 0 33 3 40 20 40 17 0 20 7 20 40 0 33 3
40 20 40 13 0 20 7 20 20 0 18 -7 20 -85 20 -78 0 -85 -2 -85 -20 0 -13 -7
-20 -20 -20 -17 0 -20 -7 -20 -40 l0 -40 -45 0 c-38 0 -45 -3 -45 -20 0 -17
-7 -20 -40 -20 -33 0 -40 -3 -40 -20 0 -18 -7 -20 -65 -20 -58 0 -65 -2 -65
-20 0 -17 -7 -20 -45 -20 -38 0 -45 3 -45 20 0 13 -7 20 -20 20 -13 0 -20 7
-20 20 0 17 -7 20 -40 20 -33 0 -40 3 -40 20 0 19 -7 20 -215 20 l-215 0 0 40
c0 33 3 40 20 40 17 0 20 7 20 40 0 33 3 40 20 40 17 0 20 7 20 40 0 36 3 40
25 40 18 0 25 5 25 20 0 13 7 20 20 20 13 0 20 -7 20 -20 0 -18 7 -20 85 -20
78 0 85 -2 85 -20 0 -19 7 -20 105 -20 98 0 105 1 105 20 0 15 7 20 25 20 18
0 25 5 25 20 0 15 -7 20 -25 20 -18 0 -25 5 -25 20 0 18 -7 20 -85 20 -78 0
-85 2 -85 20 0 17 -7 20 -40 20 -33 0 -40 3 -40 20 0 13 -7 20 -20 20 -11 0
-20 7 -20 15 0 9 -9 15 -25 15 -24 0 -25 3 -25 60 l0 60 45 0 c38 0 45 3 45
20 0 19 7 20 190 20 183 0 190 1 190 20 0 19 7 20 215 20 208 0 215 -1 215
-20 0 -18 7 -20 85 -20 78 0 85 2 85 20 0 13 7 20 20 20 13 0 20 7 20 20 0 13
-7 20 -20 20 -13 0 -20 7 -20 20 0 20 -7 20 -425 20 -418 0 -425 0 -425 -20 0
-18 -7 -20 -85 -20 -78 0 -85 2 -85 20 0 18 7 20 60 20 53 0 60 2 60 20 0 17
7 20 45 20 38 0 45 3 45 20 0 17 7 20 40 20 33 0 40 3 40 20 0 18 7 20 65 20
58 0 65 2 65 20 0 18 7 20 65 20 58 0 65 2 65 20 0 18 7 20 85 20 78 0 85 2
85 20 0 19 7 20 170 20 163 0 170 1 170 20 0 20 -7 20 -295 20 -288 0 -295 0
-295 -20 0 -19 -7 -20 -90 -20 -83 0 -90 -1 -90 -20 0 -18 -7 -20 -60 -20 -53
0 -60 -2 -60 -20 0 -18 -7 -20 -65 -20 -58 0 -65 -2 -65 -20 0 -17 -7 -20 -45
-20 -38 0 -45 -3 -45 -20 0 -17 -7 -20 -40 -20 -33 0 -40 -3 -40 -20 0 -17 -7
-20 -45 -20 -38 0 -45 -3 -45 -20 0 -18 -7 -20 -65 -20 -58 0 -65 -2 -65 -20
0 -18 -7 -20 -60 -20 -53 0 -60 -2 -60 -20 0 -18 -7 -20 -65 -20 -58 0 -65 -2
-65 -20 0 -17 -7 -20 -45 -20 -38 0 -45 -3 -45 -20 0 -17 -7 -20 -40 -20 -33
0 -40 -3 -40 -20 0 -15 -7 -20 -25 -20 -18 0 -25 -5 -25 -20 0 -15 7 -20 25
-20 22 0 25 -4 25 -35 0 -28 4 -35 20 -35 13 0 20 -7 20 -20 0 -13 7 -20 20
-20 13 0 20 7 20 20 0 18 7 20 65 20 51 0 65 3 65 15 0 11 12 15 45 15 38 0
45 3 45 20 0 17 7 20 40 20 33 0 40 -3 40 -20 0 -13 -7 -20 -20 -20 -11 0 -20
-7 -20 -15 0 -8 -9 -15 -20 -15 -13 0 -20 -7 -20 -20 0 -15 -7 -20 -25 -20
-18 0 -25 -5 -25 -20 0 -13 -7 -20 -20 -20 -13 0 -20 -7 -20 -20 0 -13 -7 -20
-20 -20 -17 0 -20 -7 -20 -40 0 -33 -3 -40 -20 -40 -13 0 -20 -7 -20 -20 0
-17 -7 -20 -45 -20 -38 0 -45 -3 -45 -20 0 -13 -7 -20 -20 -20 -13 0 -20 -7
-20 -20 0 -15 -7 -20 -25 -20 -18 0 -25 -5 -25 -20 0 -13 -7 -20 -20 -20 -13
0 -20 -7 -20 -20 0 -13 -7 -20 -20 -20 -13 0 -20 -7 -20 -20 0 -13 -7 -20 -20
-20 -13 0 -20 -7 -20 -20 0 -15 -7 -20 -25 -20 -18 0 -25 -5 -25 -20 0 -17 -7
-20 -40 -20 -33 0 -40 -3 -40 -20 0 -17 -7 -20 -45 -20 -38 0 -45 -3 -45 -20
0 -18 -7 -20 -65 -20 -58 0 -65 -2 -65 -20 0 -18 -7 -20 -85 -20 -78 0 -85 2
-85 20 0 17 -7 20 -40 20 -33 0 -40 3 -40 20 0 19 -7 20 -170 20 -163 0 -170
-1 -170 -20 0 -15 -7 -20 -25 -20 -24 0 -25 -3 -25 -60 0 -53 -2 -60 -20 -60
-19 0 -20 -7 -20 -135 0 -128 1 -135 20 -135 17 0 20 -7 20 -40 0 -36 3 -40
25 -40 23 0 25 -4 25 -40 l0 -40 40 0 c33 0 40 -3 40 -20 0 -13 7 -20 20 -20
13 0 20 -7 20 -20 0 -17 7 -20 45 -20 38 0 45 -3 45 -20 0 -20 7 -20 300 -20
l300 0 0 -175 c0 -168 1 -175 20 -175 17 0 20 -7 20 -40 0 -33 3 -40 20 -40
13 0 20 -7 20 -20 0 -15 7 -20 25 -20 18 0 25 -5 25 -20 0 -18 7 -20 85 -20
78 0 85 -2 85 -20 0 -13 7 -20 20 -20 13 0 20 7 20 20 0 18 7 20 85 20 78 0
85 2 85 20 0 17 7 20 45 20 38 0 45 3 45 20 0 13 7 20 20 20 13 0 20 7 20 20
0 13 7 20 20 20 13 0 20 7 20 20 0 13 7 20 20 20 17 0 20 7 20 40 0 36 3 40
25 40 22 0 25 4 25 35 0 28 4 35 20 35 18 0 20 7 20 60 0 53 2 60 20 60 19 0
20 7 20 240 0 233 -1 240 -20 240 -18 0 -20 7 -20 60 0 53 2 60 20 60 16 0 20
7 20 35 0 28 4 35 20 35 13 0 20 7 20 20 0 15 7 20 25 20 18 0 25 -5 25 -20 0
-13 7 -20 20 -20 13 0 20 -7 20 -20 0 -13 7 -20 20 -20 11 0 20 -7 20 -15 0
-9 9 -15 25 -15 18 0 25 -5 25 -20 0 -13 7 -20 20 -20 13 0 20 -7 20 -20 0
-13 7 -20 20 -20 17 0 20 -7 20 -40 0 -33 3 -40 20 -40 13 0 20 -7 20 -20 0
-15 7 -20 25 -20 18 0 25 -5 25 -20 0 -13 7 -20 20 -20 13 0 20 -7 20 -20 0
-13 7 -20 20 -20 13 0 20 -7 20 -20 0 -13 7 -20 20 -20 13 0 20 -7 20 -20 0
-15 7 -20 25 -20 18 0 25 -5 25 -20 0 -13 7 -20 20 -20 17 0 20 -7 20 -40 0
-33 3 -40 20 -40 13 0 20 -7 20 -20 0 -15 7 -20 25 -20 18 0 25 -5 25 -20 0
-13 7 -20 20 -20 13 0 20 -7 20 -20 0 -13 7 -20 20 -20 13 0 20 -7 20 -20 0
-13 7 -20 20 -20 13 0 20 -7 20 -20 0 -15 7 -20 25 -20 18 0 25 -5 25 -20 0
-13 7 -20 20 -20 11 0 20 -7 20 -15 0 -8 9 -15 20 -15 13 0 20 -7 20 -20 0
-13 7 -20 20 -20 13 0 20 -7 20 -20 0 -15 7 -20 25 -20 18 0 25 -5 25 -20 0
-13 7 -20 20 -20 13 0 20 -7 20 -20 0 -13 7 -20 20 -20 17 0 20 -7 20 -40 0
-36 3 -40 25 -40 18 0 25 -5 25 -20 0 -13 7 -20 20 -20 13 0 20 -7 20 -20 0
-13 7 -20 20 -20 13 0 20 -7 20 -20 0 -13 7 -20 20 -20 13 0 20 -7 20 -20 0
-15 7 -20 25 -20 18 0 25 -5 25 -20 0 -13 7 -20 20 -20 13 0 20 -7 20 -20 0
-13 7 -20 20 -20 13 0 20 -7 20 -20 0 -13 7 -20 20 -20 13 0 20 -7 20 -20 0
-15 7 -20 25 -20 18 0 25 -5 25 -20 0 -13 7 -20 20 -20 13 0 20 -7 20 -20 0
-13 7 -20 20 -20 13 0 20 -7 20 -20 0 -13 7 -20 20 -20 13 0 20 -7 20 -20 0
-15 7 -20 25 -20 16 0 25 -6 25 -15 0 -8 9 -15 20 -15 13 0 20 -7 20 -20 0
-13 7 -20 20 -20 13 0 20 -7 20 -20 0 -15 7 -20 25 -20 18 0 25 -5 25 -20 0
-13 7 -20 20 -20 13 0 20 -7 20 -20 0 -13 7 -20 20 -20 13 0 20 -7 20 -20 0
-13 7 -20 20 -20 13 0 20 -7 20 -20 0 -15 7 -20 25 -20 18 0 25 -5 25 -20 0
-13 7 -20 20 -20 13 0 20 -7 20 -20 0 -13 7 -20 20 -20 13 0 20 -7 20 -20 0
-13 7 -20 20 -20 13 0 20 -7 20 -20 0 -15 7 -20 25 -20 18 0 25 -5 25 -20 0
-13 7 -20 20 -20 13 0 20 -7 20 -20 0 -13 7 -20 20 -20 13 0 20 -7 20 -20 0
-15 7 -20 25 -20 18 0 25 -5 25 -20 0 -13 7 -20 20 -20 13 0 20 -7 20 -20 0
-13 7 -20 20 -20 13 0 20 -7 20 -20 0 -13 7 -20 20 -20 13 0 20 -7 20 -20 0
-15 7 -20 25 -20 18 0 25 -5 25 -20 0 -13 7 -20 20 -20 11 0 20 -7 20 -15 0
-8 9 -15 20 -15 13 0 20 -7 20 -20 0 -13 7 -20 20 -20 13 0 20 -7 20 -20 0
-15 7 -20 25 -20 18 0 25 -5 25 -20 0 -13 7 -20 20 -20 13 0 20 -7 20 -20 0
-13 7 -20 20 -20 13 0 20 -7 20 -20 0 -15 7 -20 25 -20 18 0 25 -5 25 -20 0
-13 7 -20 20 -20 13 0 20 -7 20 -20 0 -13 7 -20 20 -20 13 0 20 -7 20 -20 0
-13 7 -20 20 -20 13 0 20 -7 20 -20 0 -15 7 -20 25 -20 18 0 25 -5 25 -20 0
-13 7 -20 20 -20 13 0 20 -7 20 -20 0 -13 7 -20 20 -20 13 0 20 -7 20 -20 0
-13 7 -20 20 -20 13 0 20 -7 20 -20 0 -15 7 -20 25 -20 18 0 25 -5 25 -20 0
-13 7 -20 20 -20 13 0 20 -7 20 -20 0 -13 7 -20 20 -20 13 0 20 -7 20 -20 0
-15 7 -20 25 -20 18 0 25 -5 25 -20 0 -13 7 -20 20 -20 13 0 20 -7 20 -20 0
-13 7 -20 20 -20 11 0 20 -7 20 -15 0 -8 9 -15 20 -15 13 0 20 -7 20 -20 0
-17 7 -20 45 -20 38 0 45 -3 45 -20 0 -13 7 -20 20 -20 13 0 20 -7 20 -20 0
-13 7 -20 20 -20 13 0 20 -7 20 -20 0 -15 7 -20 25 -20 18 0 25 -5 25 -20 0
-13 7 -20 20 -20 13 0 20 -7 20 -20 0 -13 7 -20 20 -20 13 0 20 -7 20 -20 0
-13 7 -20 20 -20 13 0 20 -7 20 -20 0 -15 7 -20 25 -20 18 0 25 -5 25 -20 0
-13 7 -20 20 -20 13 0 20 -7 20 -20 0 -13 7 -20 20 -20 13 0 20 -7 20 -20 0
-17 7 -20 45 -20 38 0 45 -3 45 -20 0 -13 7 -20 20 -20 13 0 20 -7 20 -20 0
-13 7 -20 20 -20 13 0 20 -7 20 -20 0 -15 7 -20 25 -20 18 0 25 -5 25 -20 0
-13 7 -20 20 -20 13 0 20 -7 20 -20 0 -13 7 -20 20 -20 13 0 20 -7 20 -20 0
-13 7 -20 20 -20 13 0 20 -7 20 -20 0 -15 7 -20 25 -20 16 0 25 -6 25 -15 0
-11 11 -15 40 -15 33 0 40 -3 40 -20 0 -15 7 -20 25 -20 18 0 25 -5 25 -20 0
-13 7 -20 20 -20 13 0 20 -7 20 -20 0 -13 7 -20 20 -20 13 0 20 -7 20 -20 0
-13 7 -20 20 -20 13 0 20 -7 20 -20 0 -15 7 -20 25 -20 18 0 25 -5 25 -20 0
-17 7 -20 40 -20 33 0 40 -3 40 -20 0 -13 7 -20 20 -20 13 0 20 -7 20 -20 0
-15 7 -20 25 -20 18 0 25 -5 25 -20 0 -13 7 -20 20 -20 13 0 20 -7 20 -20 0
-13 7 -20 20 -20 13 0 20 -7 20 -20 0 -15 7 -20 25 -20 18 0 25 -5 25 -20 0
-17 7 -20 40 -20 33 0 40 -3 40 -20 0 -13 7 -20 20 -20 13 0 20 -7 20 -20 0
-15 7 -20 25 -20 18 0 25 -5 25 -20 0 -13 7 -20 20 -20 13 0 20 -7 20 -20 0
-13 7 -20 20 -20 13 0 20 -7 20 -20 0 -17 7 -20 45 -20 38 0 45 -3 45 -20 0
-13 7 -20 20 -20 11 0 20 -7 20 -15 0 -8 9 -15 20 -15 13 0 20 -7 20 -20 0
-13 7 -20 20 -20 13 0 20 -7 20 -20 0 -17 7 -20 45 -20 38 0 45 -3 45 -20 0
-13 7 -20 20 -20 13 0 20 -7 20 -20 0 -15 7 -20 25 -20 18 0 25 -5 25 -20 0
-15 -7 -20 -25 -20 -18 0 -25 5 -25 20 0 17 -7 20 -40 20 -33 0 -40 3 -40 20
0 18 -7 20 -65 20 -58 0 -65 2 -65 20 0 17 -7 20 -45 20 -38 0 -45 3 -45 20 0
17 -7 20 -40 20 -33 0 -40 3 -40 20 0 18 -7 20 -65 20 -51 0 -65 3 -65 15 0
11 -11 15 -40 15 -33 0 -40 3 -40 20 0 18 -7 20 -65 20 -58 0 -65 2 -65 20 0
17 -7 20 -45 20 -38 0 -45 3 -45 20 0 18 -7 20 -65 20 -58 0 -65 2 -65 20 0
17 -7 20 -40 20 -33 0 -40 3 -40 20 0 18 -7 20 -65 20 -58 0 -65 2 -65 20 0
18 -7 20 -65 20 -58 0 -65 2 -65 20 0 17 -7 20 -40 20 -33 0 -40 3 -40 20 0
18 -7 20 -65 20 -58 0 -65 2 -65 20 0 18 -7 20 -65 20 -58 0 -65 2 -65 20 0
17 -7 20 -45 20 -38 0 -45 3 -45 20 0 18 -7 20 -60 20 -53 0 -60 2 -60 20 0
18 -7 20 -65 20 -58 0 -65 2 -65 20 0 18 -7 20 -65 20 -58 0 -65 2 -65 20 0
17 -7 20 -40 20 -33 0 -40 3 -40 20 0 18 -7 20 -65 20 -58 0 -65 2 -65 20 0
18 -7 20 -65 20 -58 0 -65 2 -65 20 0 18 -7 20 -65 20 -58 0 -65 2 -65 20 0
18 -7 20 -65 20 -51 0 -65 3 -65 15 0 12 -14 15 -65 15 -58 0 -65 2 -65 20 0
18 -7 20 -60 20 -53 0 -60 2 -60 20 0 18 -7 20 -65 20 -58 0 -65 2 -65 20 0
18 -7 20 -65 20 -58 0 -65 2 -65 20 0 18 -7 20 -65 20 -58 0 -65 2 -65 20 0
18 -7 20 -85 20 -78 0 -85 2 -85 20 0 18 -7 20 -65 20 -58 0 -65 2 -65 20 0
18 -7 20 -65 20 -58 0 -65 2 -65 20 0 18 -7 20 -60 20 -53 0 -60 2 -60 20 0
18 -7 20 -85 20 -78 0 -85 2 -85 20 0 18 -7 20 -65 20 -58 0 -65 2 -65 20 0
18 -7 20 -85 20 -78 0 -85 2 -85 20 0 18 -7 20 -65 20 -58 0 -65 2 -65 20 0
18 -7 20 -85 20 -78 0 -85 2 -85 20 0 18 -7 20 -65 20 -58 0 -65 2 -65 20 0
18 -7 20 -85 20 -78 0 -85 2 -85 20 0 18 -7 20 -85 20 -78 0 -85 2 -85 20 0
18 -7 20 -85 20 -78 0 -85 2 -85 20 0 18 -7 20 -85 20 -69 0 -85 3 -85 15 0
12 -16 15 -85 15 -78 0 -85 2 -85 20 0 18 -7 20 -85 20 -78 0 -85 2 -85 20 0
19 -7 20 -90 20 -83 0 -90 1 -90 20 0 19 -7 20 -105 20 -98 0 -105 1 -105 20
0 18 -7 20 -85 20 -78 0 -85 2 -85 20 0 19 -7 20 -105 20 -98 0 -105 1 -105
20 0 18 -7 20 -85 20 -78 0 -85 2 -85 20 0 19 -7 20 -110 20 -103 0 -110 1
-110 20 0 19 -7 20 -105 20 -98 0 -105 1 -105 20 0 19 -7 20 -105 20 -98 0
-105 1 -105 20 0 19 -7 20 -130 20 -123 0 -130 1 -130 20 0 19 -7 20 -130 20
-123 0 -130 1 -130 20 0 19 -7 20 -125 20 -118 0 -125 1 -125 20 0 19 -7 20
-130 20 -123 0 -130 1 -130 20 0 19 -7 20 -150 20 -143 0 -150 1 -150 20 0 19
-7 20 -150 20 -143 0 -150 1 -150 20 0 19 -7 20 -170 20 -163 0 -170 1 -170
20 0 19 -7 20 -190 20 -183 0 -190 1 -190 20 0 19 -7 20 -235 20 -202 0 -235
2 -235 15 0 13 -45 15 -345 15 -338 0 -345 0 -345 20 0 20 -7 20 -275 20 -268
0 -275 0 -275 20 0 13 7 20 20 20 17 0 20 7 20 40 0 33 3 40 20 40 17 0 20 7
20 40 0 36 3 40 25 40 18 0 25 5 25 20 0 13 7 20 20 20 17 0 20 7 20 40 0 33
3 40 20 40 17 0 20 7 20 40 0 33 3 40 20 40 17 0 20 7 20 40 0 36 3 40 25 40
18 0 25 5 25 20 0 13 7 20 20 20 17 0 20 7 20 40 0 33 3 40 20 40 17 0 20 7
20 40 0 36 3 40 25 40 22 0 25 4 25 35 0 28 4 35 20 35 17 0 20 7 20 40 0 33
3 40 20 40 17 0 20 7 20 40 0 33 3 40 20 40 17 0 20 7 20 40 0 36 3 40 25 40
23 0 25 4 25 40 0 33 3 40 20 40 17 0 20 7 20 40 0 33 3 40 20 40 17 0 20 7
20 40 0 33 3 40 20 40 17 0 20 7 20 40 0 36 3 40 25 40 24 0 25 3 25 60 0 53
2 60 20 60 16 0 20 7 20 35 0 28 4 35 20 35 17 0 20 7 20 40 0 33 3 40 20 40
17 0 20 7 20 40 0 36 3 40 25 40 24 0 25 3 25 60 0 53 2 60 20 60 17 0 20 7
20 40 0 33 3 40 20 40 18 0 20 7 20 60 0 57 1 60 25 60 23 0 25 4 25 40 0 33
3 40 20 40 18 0 20 7 20 60 0 53 2 60 20 60 16 0 20 7 20 35 0 28 4 35 20 35
18 0 20 7 20 60 0 57 1 60 25 60 24 0 25 3 25 60 0 53 2 60 20 60 18 0 20 7
20 60 0 53 2 60 20 60 18 0 20 7 20 60 0 53 2 60 20 60 18 0 20 7 20 60 0 57
1 60 25 60 24 0 25 3 25 55 0 48 2 55 20 55 18 0 20 7 20 80 0 73 2 80 20 80
18 0 20 7 20 60 0 57 1 60 25 60 25 0 25 1 25 80 0 73 2 80 20 80 18 0 20 7
20 80 0 73 2 80 20 80 19 0 20 7 20 95 0 88 1 95 20 95 19 0 20 7 20 100 l0
100 25 0 25 0 0 100 c0 93 1 100 20 100 19 0 20 7 20 100 0 93 1 100 20 100
19 0 20 7 20 115 0 108 1 115 20 115 19 0 20 7 20 160 l0 160 25 0 25 0 0 175
c0 168 1 175 20 175 20 0 20 7 20 715 0 708 0 715 -20 715 -19 0 -20 7 -20
135 l0 135 -25 0 -25 0 0 120 c0 113 -1 120 -20 120 -18 0 -20 7 -20 80 0 73
-2 80 -20 80 -18 0 -20 7 -20 75 0 68 -2 75 -20 75 -17 0 -20 7 -20 40 0 33 3
40 20 40 17 0 20 -7 20 -40z m2990 -210 c0 -17 7 -20 40 -20 33 0 40 -3 40
-20 0 -13 -7 -20 -20 -20 -18 0 -20 -7 -20 -80 0 -73 2 -80 20 -80 17 0 20 -7
20 -40 0 -33 -3 -40 -20 -40 -17 0 -20 -7 -20 -40 0 -33 3 -40 20 -40 17 0 20
-7 20 -40 0 -33 -3 -40 -20 -40 -17 0 -20 -7 -20 -40 l0 -40 -40 0 -40 0 0
-40 c0 -33 3 -40 20 -40 18 0 20 -7 20 -55 0 -48 -2 -55 -20 -55 -19 0 -20 -7
-20 -120 l0 -120 -25 0 c-18 0 -25 -5 -25 -20 0 -13 -7 -20 -20 -20 -17 0 -20
-7 -20 -40 0 -33 3 -40 20 -40 18 0 20 -7 20 -60 0 -53 -2 -60 -20 -60 -13 0
-20 -7 -20 -20 0 -13 -7 -20 -20 -20 -18 0 -20 -7 -20 -60 0 -57 -1 -60 -25
-60 -25 0 -25 0 -25 -95 l0 -95 -40 0 c-33 0 -40 -3 -40 -20 0 -13 -7 -20 -20
-20 -18 0 -20 -7 -20 -60 0 -57 -1 -60 -25 -60 -25 0 -25 -1 -25 -80 0 -73 -2
-80 -20 -80 -19 0 -20 -7 -20 -120 0 -113 -1 -120 -20 -120 -11 0 -20 -7 -20
-15 0 -8 9 -15 20 -15 13 0 20 -7 20 -20 0 -13 -7 -20 -20 -20 -18 0 -20 -7
-20 -60 0 -53 2 -60 20 -60 17 0 20 -7 20 -40 0 -33 3 -40 20 -40 17 0 20 -7
20 -40 0 -36 3 -40 25 -40 23 0 25 -4 25 -40 0 -36 -2 -40 -25 -40 -22 0 -25
-4 -25 -40 0 -36 3 -40 25 -40 l25 0 0 -155 0 -155 -45 0 c-45 0 -45 0 -45 35
0 28 -4 35 -20 35 -13 0 -20 7 -20 20 0 13 -7 20 -20 20 -13 0 -20 7 -20 20 0
15 -7 20 -25 20 -22 0 -25 4 -25 40 0 33 -3 40 -20 40 -13 0 -20 7 -20 20 0
13 -7 20 -20 20 -17 0 -20 7 -20 40 0 33 -3 40 -20 40 -20 0 -20 7 -20 435 0
428 0 435 20 435 18 0 20 7 20 80 0 73 2 80 20 80 18 0 20 7 20 60 0 53 2 60
20 60 18 0 20 7 20 75 0 73 1 75 25 75 23 0 25 4 25 40 0 33 3 40 20 40 18 0
20 7 20 60 0 53 2 60 20 60 17 0 20 7 20 40 0 33 3 40 20 40 17 0 20 7 20 40
0 36 3 40 25 40 23 0 25 4 25 40 0 33 3 40 20 40 18 0 20 7 20 60 0 53 -2 60
-20 60 -19 0 -20 7 -20 175 l0 175 -25 0 -25 0 0 180 0 180 25 0 c18 0 25 5
25 20 0 19 7 20 170 20 163 0 170 -1 170 -20z m4140 -320 c0 -13 7 -20 20 -20
13 0 20 -7 20 -20 0 -17 7 -20 45 -20 l45 0 0 -40 c0 -33 3 -40 20 -40 13 0
20 -7 20 -20 0 -13 7 -20 20 -20 13 0 20 -7 20 -20 0 -13 -7 -20 -20 -20 -18
0 -20 -7 -20 -55 0 -48 2 -55 20 -55 18 0 20 -7 20 -60 0 -53 -2 -60 -20 -60
-13 0 -20 -7 -20 -20 0 -13 7 -20 20 -20 17 0 20 -7 20 -40 l0 -40 -85 0 c-78
0 -85 -2 -85 -20 0 -13 -7 -20 -20 -20 -17 0 -20 -7 -20 -40 l0 -40 -40 0
c-33 0 -40 -3 -40 -20 0 -15 -7 -20 -25 -20 -18 0 -25 -5 -25 -20 0 -13 -7
-20 -20 -20 -13 0 -20 -7 -20 -20 0 -13 -7 -20 -20 -20 -13 0 -20 -7 -20 -20
0 -18 -7 -20 -85 -20 -78 0 -85 -2 -85 -20 0 -18 -7 -20 -85 -20 -78 0 -85 -2
-85 -20 0 -15 -7 -20 -25 -20 -18 0 -25 5 -25 20 0 18 -7 20 -65 20 -58 0 -65
2 -65 20 0 18 -7 20 -60 20 -53 0 -60 2 -60 20 0 18 -7 20 -85 20 l-85 0 0 40
c0 33 3 40 20 40 13 0 20 7 20 20 0 13 7 20 20 20 13 0 20 7 20 20 0 13 7 20
20 20 17 0 20 7 20 40 0 36 3 40 25 40 18 0 25 5 25 20 0 13 7 20 20 20 13 0
20 7 20 20 0 13 7 20 20 20 13 0 20 7 20 20 0 13 7 20 20 20 13 0 20 7 20 20
0 15 7 20 25 20 18 0 25 5 25 20 0 13 7 20 20 20 13 0 20 7 20 20 0 13 7 20
20 20 11 0 20 7 20 15 0 11 12 15 45 15 38 0 45 3 45 20 0 13 7 20 20 20 13 0
20 7 20 20 0 13 7 20 20 20 13 0 20 7 20 20 0 15 7 20 25 20 18 0 25 5 25 20
0 17 7 20 40 20 33 0 40 3 40 20 0 13 7 20 20 20 13 0 20 7 20 20 0 17 7 20
45 20 38 0 45 3 45 20 0 17 7 20 45 20 38 0 45 3 45 20 0 17 7 20 40 20 33 0
40 -3 40 -20z m-4100 -1580 c0 -13 7 -20 20 -20 18 0 20 -7 20 -60 0 -57 1
-60 25 -60 24 0 25 -3 25 -55 0 -48 2 -55 20 -55 18 0 20 -7 20 -60 0 -53 2
-60 20 -60 13 0 20 -7 20 -20 0 -13 -7 -20 -20 -20 -13 0 -20 7 -20 20 0 19
-7 20 -105 20 -98 0 -105 -1 -105 -20 0 -17 -7 -20 -45 -20 -38 0 -45 3 -45
20 0 13 7 20 20 20 19 0 20 7 20 115 l0 115 25 0 c24 0 25 3 25 60 0 53 2 60
20 60 13 0 20 7 20 20 0 13 7 20 20 20 13 0 20 -7 20 -20z m2260 -530 c0 -33
-3 -40 -20 -40 -13 0 -20 -7 -20 -20 0 -13 -7 -20 -20 -20 -17 0 -20 -7 -20
-40 0 -33 -3 -40 -20 -40 -13 0 -20 -7 -20 -20 0 -15 -7 -20 -25 -20 -22 0
-25 -4 -25 -40 0 -33 -3 -40 -20 -40 -17 0 -20 -7 -20 -40 0 -33 -3 -40 -20
-40 -17 0 -20 7 -20 40 0 33 -3 40 -20 40 -13 0 -20 7 -20 20 0 15 -7 20 -25
20 -22 0 -25 4 -25 40 l0 40 -40 0 c-33 0 -40 3 -40 20 0 19 -7 20 -110 20
-103 0 -110 -1 -110 -20 0 -18 -7 -20 -60 -20 -53 0 -60 -2 -60 -20 0 -15 -7
-20 -25 -20 -22 0 -25 4 -25 40 0 36 3 40 25 40 18 0 25 5 25 20 0 13 7 20 20
20 13 0 20 7 20 20 0 13 7 20 20 20 13 0 20 7 20 20 0 18 7 20 65 20 58 0 65
2 65 20 0 20 7 20 275 20 l275 0 0 -40z m-2900 -490 c0 -13 7 -20 20 -20 13 0
20 -7 20 -20 0 -15 7 -20 25 -20 18 0 25 -5 25 -20 0 -13 7 -20 20 -20 17 0
20 -7 20 -40 0 -33 3 -40 20 -40 13 0 20 -7 20 -20 0 -13 7 -20 20 -20 13 0
20 -7 20 -20 0 -15 7 -20 25 -20 l25 0 0 -120 0 -120 -45 0 -45 0 0 60 c0 53
-2 60 -20 60 -17 0 -20 7 -20 40 0 33 -3 40 -20 40 -18 0 -20 7 -20 60 0 57
-1 60 -25 60 -22 0 -25 4 -25 40 0 33 -3 40 -20 40 -17 0 -20 7 -20 40 0 33
-3 40 -20 40 -13 0 -20 7 -20 20 0 13 7 20 20 20 13 0 20 -7 20 -20z m210
-770 c0 -33 -3 -40 -20 -40 -13 0 -20 -7 -20 -20 0 -13 -7 -20 -20 -20 -17 0
-20 -7 -20 -40 0 -33 -3 -40 -20 -40 -13 0 -20 -7 -20 -20 0 -15 -7 -20 -25
-20 -22 0 -25 -4 -25 -40 0 -33 -3 -40 -20 -40 -17 0 -20 -7 -20 -40 0 -33 -3
-40 -20 -40 -18 0 -20 -7 -20 -80 0 -73 -2 -80 -20 -80 -19 0 -20 7 -20 100 0
93 1 100 20 100 18 0 20 7 20 60 0 53 2 60 20 60 13 0 20 7 20 20 0 13 7 20
20 20 17 0 20 7 20 40 0 36 3 40 25 40 18 0 25 5 25 20 0 13 7 20 20 20 13 0
20 7 20 20 0 13 7 20 20 20 13 0 20 7 20 20 0 13 7 20 20 20 17 0 20 -7 20
-40z m1240 -1250 c0 -15 7 -20 25 -20 18 0 25 -5 25 -20 0 -13 7 -20 20 -20
13 0 20 -7 20 -20 0 -17 7 -20 40 -20 l40 0 0 -40 c0 -36 3 -40 25 -40 16 0
25 -6 25 -15 0 -8 9 -15 20 -15 17 0 20 -7 20 -40 0 -33 3 -40 20 -40 17 0 20
-7 20 -40 0 -33 3 -40 20 -40 18 0 20 -7 20 -60 0 -57 1 -60 25 -60 l25 0 0
-200 0 -200 -25 0 c-22 0 -25 -4 -25 -35 0 -28 -4 -35 -20 -35 -13 0 -20 -7
-20 -20 0 -13 -7 -20 -20 -20 -13 0 -20 -7 -20 -20 0 -13 -7 -20 -20 -20 -13
0 -20 -7 -20 -20 0 -18 -7 -20 -65 -20 -58 0 -65 -2 -65 -20 0 -18 -7 -20 -85
-20 -78 0 -85 2 -85 20 0 18 -7 20 -65 20 -58 0 -65 2 -65 20 0 13 -7 20 -20
20 -20 0 -20 7 -20 275 l0 275 -25 0 c-24 0 -25 3 -25 60 0 53 -2 60 -20 60
-18 0 -20 7 -20 60 0 53 -2 60 -20 60 -16 0 -20 7 -20 35 0 28 -4 35 -20 35
-13 0 -20 7 -20 20 0 13 7 20 20 20 13 0 20 7 20 20 0 17 7 20 40 20 33 0 40
3 40 20 0 15 7 20 25 20 18 0 25 -5 25 -20 0 -13 7 -20 20 -20 13 0 20 -7 20
-20 0 -13 7 -20 20 -20 13 0 20 -7 20 -20 0 -13 7 -20 20 -20 16 0 20 -7 20
-35 0 -31 3 -35 25 -35 23 0 25 -4 25 -40 0 -33 3 -40 20 -40 18 0 20 7 20 60
0 53 -2 60 -20 60 -19 0 -20 7 -20 115 l0 115 40 0 c33 0 40 -3 40 -20z
m-1150 -230 c0 -13 7 -20 20 -20 17 0 20 -7 20 -40 0 -33 3 -40 20 -40 17 0
20 -7 20 -40 0 -36 3 -40 25 -40 18 0 25 -5 25 -20 0 -17 7 -20 40 -20 33 0
40 -3 40 -20 0 -17 7 -20 45 -20 38 0 45 -3 45 -20 0 -19 7 -20 105 -20 l105
0 0 100 c0 93 -1 100 -20 100 -17 0 -20 7 -20 40 0 33 3 40 20 40 13 0 20 -7
20 -20 0 -13 7 -20 20 -20 13 0 20 -7 20 -20 0 -15 7 -20 25 -20 23 0 25 -4
25 -40 0 -33 3 -40 20 -40 13 0 20 -7 20 -20 0 -13 7 -20 20 -20 13 0 20 -7
20 -20 0 -17 7 -20 45 -20 l45 0 0 -60 c0 -53 -2 -60 -20 -60 -13 0 -20 -7
-20 -20 0 -19 -7 -20 -90 -20 -83 0 -90 -1 -90 -20 0 -19 -7 -20 -105 -20 -98
0 -105 1 -105 20 0 18 -7 20 -85 20 -78 0 -85 2 -85 20 0 17 -7 20 -45 20 -38
0 -45 3 -45 20 0 13 -7 20 -20 20 -13 0 -20 7 -20 20 0 13 -7 20 -20 20 -13 0
-20 7 -20 20 0 13 -7 20 -20 20 -18 0 -20 7 -20 60 0 57 -1 60 -25 60 -22 0
-25 4 -25 40 0 36 3 40 25 40 23 0 25 4 25 40 0 33 3 40 20 40 13 0 20 -7 20
-20z"></path>
      <path d="M6830 6410 c0 -19 -7 -20 -105 -20 -87 0 -105 -3 -105 -15 0 -12 -14
-15 -65 -15 -58 0 -65 -2 -65 -20 0 -18 -7 -20 -65 -20 -58 0 -65 -2 -65 -20
0 -17 -7 -20 -40 -20 -33 0 -40 -3 -40 -20 0 -18 -7 -20 -65 -20 -58 0 -65 -2
-65 -20 0 -13 -7 -20 -20 -20 -13 0 -20 -7 -20 -20 0 -17 -7 -20 -45 -20 -38
0 -45 -3 -45 -20 0 -17 -7 -20 -40 -20 -33 0 -40 -3 -40 -20 0 -15 -7 -20 -25
-20 -18 0 -25 -5 -25 -20 0 -17 -7 -20 -40 -20 -33 0 -40 -3 -40 -20 0 -13 -7
-20 -20 -20 -13 0 -20 -7 -20 -20 0 -17 -7 -20 -45 -20 -38 0 -45 -3 -45 -20
0 -13 -7 -20 -20 -20 -13 0 -20 -7 -20 -20 0 -15 -7 -20 -25 -20 -18 0 -25 -5
-25 -20 0 -13 -7 -20 -20 -20 -13 0 -20 -7 -20 -20 0 -13 7 -20 20 -20 13 0
20 7 20 20 0 17 7 20 45 20 38 0 45 3 45 20 0 13 7 20 20 20 13 0 20 7 20 20
0 17 7 20 45 20 38 0 45 3 45 20 0 13 7 20 20 20 13 0 20 7 20 20 0 17 7 20
45 20 38 0 45 3 45 20 0 17 7 20 40 20 33 0 40 3 40 20 0 17 7 20 45 20 38 0
45 3 45 20 0 17 7 20 40 20 33 0 40 3 40 20 0 18 7 20 65 20 58 0 65 2 65 20
0 17 7 20 45 20 38 0 45 3 45 20 0 18 7 20 60 20 53 0 60 2 60 20 0 18 7 20
85 20 78 0 85 2 85 20 0 19 7 20 90 20 83 0 90 1 90 20 0 19 7 20 170 20 144
0 170 2 170 15 0 12 18 15 105 15 98 0 105 1 105 20 0 20 -7 20 -300 20 -293
0 -300 0 -300 -20z"></path>
      <path d="M3370 5840 c0 -33 -3 -40 -20 -40 -13 0 -20 -7 -20 -20 0 -13 -7 -20
-20 -20 -17 0 -20 -7 -20 -40 0 -33 -3 -40 -20 -40 -19 0 -20 -7 -20 -135 0
-128 1 -135 20 -135 17 0 20 -7 20 -40 0 -33 3 -40 20 -40 17 0 20 -7 20 -40
0 -33 3 -40 20 -40 18 0 20 7 20 60 0 53 -2 60 -20 60 -19 0 -20 7 -20 155 0
148 1 155 20 155 18 0 20 7 20 60 0 57 1 60 25 60 23 0 25 4 25 40 0 36 -2 40
-25 40 -22 0 -25 -4 -25 -40z"></path>
      <path d="M3670 5780 c0 -13 -7 -20 -20 -20 -17 0 -20 -7 -20 -40 0 -33 -3 -40
-20 -40 -16 0 -20 -7 -20 -35 0 -31 -3 -35 -25 -35 -25 0 -25 -1 -25 -80 0
-79 0 -80 25 -80 23 0 25 -4 25 -40 0 -33 3 -40 20 -40 17 0 20 -7 20 -40 0
-33 3 -40 20 -40 17 0 20 7 20 40 0 33 -3 40 -20 40 -19 0 -20 7 -20 135 0
128 1 135 20 135 18 0 20 7 20 60 0 57 1 60 25 60 18 0 25 5 25 20 0 15 -7 20
-25 20 -18 0 -25 -5 -25 -20z"></path>
      <path d="M5340 5390 c0 -13 -7 -20 -20 -20 -13 0 -20 -7 -20 -20 0 -15 -7 -20
-25 -20 -18 0 -25 -5 -25 -20 0 -17 -7 -20 -40 -20 -33 0 -40 -3 -40 -20 0
-15 -7 -20 -25 -20 -18 0 -25 -5 -25 -20 0 -17 -7 -20 -40 -20 -33 0 -40 -3
-40 -20 0 -19 7 -20 130 -20 123 0 130 1 130 20 0 17 7 20 40 20 33 0 40 3 40
20 0 13 7 20 20 20 13 0 20 7 20 20 0 15 7 20 25 20 18 0 25 5 25 20 0 13 7
20 20 20 13 0 20 7 20 20 0 13 -7 20 -20 20 -13 0 -20 7 -20 20 0 18 -7 20
-65 20 -58 0 -65 -2 -65 -20z"></path>
      <path d="M3760 5030 c0 -13 7 -20 20 -20 17 0 20 -7 20 -40 0 -33 3 -40 20
-40 13 0 20 -7 20 -20 0 -15 7 -20 25 -20 16 0 25 -6 25 -15 0 -8 9 -15 20
-15 13 0 20 -7 20 -20 0 -19 7 -20 170 -20 163 0 170 1 170 20 0 19 -7 20
-130 20 -109 0 -130 2 -130 15 0 11 -11 15 -40 15 -33 0 -40 3 -40 20 0 13 -7
20 -20 20 -13 0 -20 7 -20 20 0 15 -7 20 -25 20 -18 0 -25 5 -25 20 0 13 -7
20 -20 20 -13 0 -20 7 -20 20 0 13 -7 20 -20 20 -13 0 -20 -7 -20 -20z"></path>
      <path d="M3720 4680 c0 -13 7 -20 20 -20 13 0 20 -7 20 -20 0 -13 7 -20 20
-20 17 0 20 -7 20 -40 l0 -40 45 0 c38 0 45 -3 45 -20 0 -18 7 -20 60 -20 53
0 60 -2 60 -20 0 -15 7 -20 25 -20 18 0 25 5 25 20 0 18 7 20 85 20 78 0 85 2
85 20 0 19 -7 20 -130 20 -123 0 -130 1 -130 20 0 17 -7 20 -40 20 -33 0 -40
3 -40 20 0 17 -7 20 -45 20 -38 0 -45 3 -45 20 0 13 -7 20 -20 20 -13 0 -20 7
-20 20 0 13 -7 20 -20 20 -13 0 -20 -7 -20 -20z"></path>
    </g>
  </symbol>
</svg>